<svg aria-hidden="true" style="position: absolute; width: 0; height: 0; overflow: hidden;" version="1.1" xmlns="http://www.w3.org/2000/svg" xmlns:xlink="http://www.w3.org/1999/xlink">
<defs>
<symbol id="favorites-icon" viewBox="0 0 37 32">
<path fill="#9bb537" style="fill: var(--color1, #9bb537)" d="M7.325 12.723h23.133v17.735h-23.133v-17.735z"></path>
<path fill="#9bb537" style="fill: var(--color1, #9bb537)" d="M16.578 11.373c0 4.578-3.711 8.289-8.289 8.289s-8.289-3.711-8.289-8.289c0-4.578 3.711-8.289 8.289-8.289s8.289 3.711 8.289 8.289z"></path>
<path fill="#9bb537" style="fill: var(--color1, #9bb537)" d="M26.988 8.289c0 4.578-3.711 8.289-8.289 8.289s-8.289-3.711-8.289-8.289c0-4.578 3.711-8.289 8.289-8.289s8.289 3.711 8.289 8.289z"></path>
<path fill="#9bb537" style="fill: var(--color1, #9bb537)" d="M37.398 11.373c0 4.578-3.711 8.289-8.289 8.289s-8.289-3.711-8.289-8.289c0-4.578 3.711-8.289 8.289-8.289s8.289 3.711 8.289 8.289z"></path>
<path fill="#f8f8f8" style="fill: var(--color2, #f8f8f8)" d="M7.325 29.301h23.133v2.036c0 0.366-0.324 0.663-0.723 0.663h-21.687c-0.399 0-0.723-0.297-0.723-0.663v-2.036z"></path>
<path fill="#f8f8f8" style="fill: var(--color2, #f8f8f8)" d="M14.265 10.36c0-0.611 0.432-1.107 0.964-1.107s0.964 0.495 0.964 1.107v5.112c0 0.611-0.432 1.107-0.964 1.107s-0.964-0.495-0.964-1.107v-5.112z"></path>
<path fill="#f8f8f8" style="fill: var(--color2, #f8f8f8)" d="M17.349 10.36c0-0.611 0.604-1.107 1.349-1.107s1.349 0.495 1.349 1.107v5.112c0 0.611-0.604 1.107-1.349 1.107s-1.349-0.495-1.349-1.107v-5.112z"></path>
<path fill="#f8f8f8" style="fill: var(--color2, #f8f8f8)" d="M21.205 10.36c0-0.611 0.432-1.107 0.964-1.107s0.964 0.495 0.964 1.107v5.112c0 0.611-0.432 1.107-0.964 1.107s-0.964-0.495-0.964-1.107v-5.112z"></path>
<path fill="#050505" style="fill: var(--color3, #050505)" d="M28.184 3.131c0.289-0.030 0.581-0.045 0.878-0.045 3.714 0 6.861 2.413 7.938 5.746-0.289 0.030-0.581 0.045-0.878 0.045-3.714 0-6.861-2.413-7.938-5.746z"></path>
</symbol>
<symbol id="favorites-icon-mob" viewBox="0 0 38 32">
<path fill="#9bb537" style="fill: var(--color1, #9bb537)" d="M7.172 12.69h23.172v17.655h-23.172v-17.655z"></path>
<path fill="#9bb537" style="fill: var(--color1, #9bb537)" d="M16.552 11.586c0 4.571-3.705 8.276-8.276 8.276s-8.276-3.705-8.276-8.276c0-4.571 3.705-8.276 8.276-8.276s8.276 3.705 8.276 8.276z"></path>
<path fill="#9bb537" style="fill: var(--color1, #9bb537)" d="M27.034 8.276c0 4.571-3.705 8.276-8.276 8.276s-8.276-3.705-8.276-8.276c0-4.571 3.705-8.276 8.276-8.276s8.276 3.705 8.276 8.276z"></path>
<path fill="#9bb537" style="fill: var(--color1, #9bb537)" d="M37.517 11.586c0 4.571-3.705 8.276-8.276 8.276s-8.276-3.705-8.276-8.276c0-4.571 3.705-8.276 8.276-8.276s8.276 3.705 8.276 8.276z"></path>
<path fill="#f8f8f8" style="fill: var(--color2, #f8f8f8)" d="M7.172 29.241h23.172v2.081c0 0.374-0.324 0.678-0.724 0.678h-21.724c-0.4 0-0.724-0.303-0.724-0.678v-2.081z"></path>
<path fill="#f8f8f8" style="fill: var(--color2, #f8f8f8)" d="M14.345 10.463c0-0.598 0.371-1.084 0.828-1.084s0.828 0.485 0.828 1.084v5.005c0 0.598-0.371 1.084-0.828 1.084s-0.828-0.485-0.828-1.084v-5.005z"></path>
<path fill="#f8f8f8" style="fill: var(--color2, #f8f8f8)" d="M17.103 10.463c0-0.598 0.618-1.084 1.379-1.084s1.379 0.485 1.379 1.084v5.005c0 0.598-0.618 1.084-1.379 1.084s-1.379-0.485-1.379-1.084v-5.005z"></path>
<path fill="#f8f8f8" style="fill: var(--color2, #f8f8f8)" d="M20.966 10.463c0-0.598 0.494-1.084 1.103-1.084s1.103 0.485 1.103 1.084v5.005c0 0.598-0.494 1.084-1.103 1.084s-1.103-0.485-1.103-1.084v-5.005z"></path>
<path fill="#050505" style="fill: var(--color3, #050505)" d="M28.184 3.131c0.288-0.030 0.581-0.045 0.878-0.045 3.714 0 6.861 2.413 7.938 5.746-0.288 0.030-0.581 0.045-0.878 0.045-3.714 0-6.861-2.413-7.938-5.746z"></path>
</symbol>
</defs>
</svg>
