<svg width="82" height="15" viewBox="0 0 82 15" fill="none" xmlns="http://www.w3.org/2000/svg">
<path d="M5.70821 2.27273V3.86364H0.691165V2.27273H5.70821ZM1.9298 0.181818H3.98662V8.375C3.98662 8.65152 4.02829 8.86364 4.11162 9.01136C4.19874 9.1553 4.31238 9.25379 4.45253 9.30682C4.59268 9.35985 4.74798 9.38636 4.91844 9.38636C5.04723 9.38636 5.16465 9.37689 5.27071 9.35795C5.38056 9.33902 5.46389 9.32197 5.52071 9.30682L5.8673 10.9148C5.75745 10.9527 5.60026 10.9943 5.39571 11.0398C5.19495 11.0852 4.94874 11.1117 4.65707 11.1193C4.14192 11.1345 3.67791 11.0568 3.26503 10.8864C2.85215 10.7121 2.5245 10.4432 2.28207 10.0795C2.04344 9.71591 1.92601 9.26136 1.9298 8.71591V0.181818ZM9.29975 11.1761C8.74671 11.1761 8.24861 11.0777 7.80543 10.8807C7.36603 10.6799 7.01755 10.3845 6.75997 9.99432C6.50618 9.60417 6.37929 9.12311 6.37929 8.55114C6.37929 8.05871 6.4702 7.65152 6.65202 7.32955C6.83384 7.00758 7.08194 6.75 7.39634 6.55682C7.71073 6.36364 8.0649 6.2178 8.45884 6.11932C8.85656 6.01705 9.26755 5.94318 9.69179 5.89773C10.2032 5.8447 10.6179 5.79735 10.9361 5.75568C11.2543 5.71023 11.4854 5.64205 11.6293 5.55114C11.777 5.45644 11.8509 5.31061 11.8509 5.11364V5.07955C11.8509 4.65152 11.724 4.32008 11.4702 4.08523C11.2164 3.85038 10.8509 3.73295 10.3736 3.73295C9.86982 3.73295 9.4702 3.8428 9.17475 4.0625C8.88308 4.2822 8.68611 4.54167 8.58384 4.84091L6.66338 4.56818C6.8149 4.03788 7.0649 3.5947 7.41338 3.23864C7.76187 2.87879 8.188 2.60985 8.69179 2.43182C9.19558 2.25 9.7524 2.15909 10.3622 2.15909C10.7827 2.15909 11.2013 2.20833 11.6179 2.30682C12.0346 2.4053 12.4153 2.56818 12.76 2.79545C13.1047 3.01894 13.3812 3.32386 13.5895 3.71023C13.8016 4.09659 13.9077 4.57955 13.9077 5.15909V11H11.9304V9.80114H11.8622C11.7372 10.0436 11.5611 10.2708 11.3338 10.483C11.1104 10.6913 10.8282 10.8598 10.4872 10.9886C10.1501 11.1136 9.75429 11.1761 9.29975 11.1761ZM9.83384 9.66477C10.2467 9.66477 10.6047 9.58333 10.9077 9.42045C11.2107 9.25379 11.4437 9.03409 11.6066 8.76136C11.7732 8.48864 11.8566 8.19129 11.8566 7.86932V6.84091C11.7922 6.89394 11.6823 6.94318 11.527 6.98864C11.3755 7.03409 11.205 7.07386 11.0157 7.10795C10.8263 7.14205 10.6388 7.17235 10.4532 7.19886C10.2675 7.22538 10.1066 7.24811 9.9702 7.26705C9.66338 7.30871 9.38876 7.37689 9.14634 7.47159C8.90391 7.56629 8.71262 7.69886 8.57247 7.86932C8.43232 8.03598 8.36225 8.25189 8.36225 8.51705C8.36225 8.89583 8.5005 9.18182 8.77702 9.375C9.05353 9.56818 9.40581 9.66477 9.83384 9.66477ZM22.2336 4.57955L20.3586 4.78409C20.3056 4.5947 20.2128 4.41667 20.0802 4.25C19.9514 4.08333 19.7772 3.94886 19.5575 3.84659C19.3378 3.74432 19.0688 3.69318 18.7507 3.69318C18.3226 3.69318 17.9628 3.78598 17.6711 3.97159C17.3832 4.1572 17.2412 4.39773 17.245 4.69318C17.2412 4.94697 17.334 5.15341 17.5234 5.3125C17.7166 5.47159 18.0347 5.60227 18.4779 5.70455L19.9666 6.02273C20.7923 6.20076 21.406 6.48295 21.8075 6.86932C22.2128 7.25568 22.4173 7.76136 22.4211 8.38636C22.4173 8.93561 22.2563 9.42045 21.9382 9.84091C21.6238 10.2576 21.1863 10.5833 20.6257 10.8182C20.065 11.053 19.4211 11.1705 18.6938 11.1705C17.6257 11.1705 16.7658 10.947 16.1143 10.5C15.4628 10.0492 15.0745 9.42235 14.9495 8.61932L16.9552 8.42614C17.0461 8.82008 17.2393 9.11742 17.5347 9.31818C17.8302 9.51894 18.2147 9.61932 18.6882 9.61932C19.1768 9.61932 19.5688 9.51894 19.8643 9.31818C20.1635 9.11742 20.3132 8.86932 20.3132 8.57386C20.3132 8.32386 20.2166 8.11742 20.0234 7.95455C19.834 7.79167 19.5385 7.66667 19.137 7.57955L17.6484 7.26705C16.8113 7.0928 16.1919 6.79924 15.7904 6.38636C15.3889 5.9697 15.19 5.44318 15.1938 4.80682C15.19 4.26894 15.3359 3.80303 15.6313 3.40909C15.9306 3.01136 16.3454 2.70455 16.8757 2.48864C17.4097 2.26894 18.0253 2.15909 18.7222 2.15909C19.745 2.15909 20.5499 2.37689 21.137 2.8125C21.7279 3.24811 22.0935 3.83712 22.2336 4.57955ZM27.8351 2.27273V3.86364H22.818V2.27273H27.8351ZM24.0567 0.181818H26.1135V8.375C26.1135 8.65152 26.1552 8.86364 26.2385 9.01136C26.3256 9.1553 26.4393 9.25379 26.5794 9.30682C26.7196 9.35985 26.8749 9.38636 27.0453 9.38636C27.1741 9.38636 27.2915 9.37689 27.3976 9.35795C27.5074 9.33902 27.5908 9.32197 27.6476 9.30682L27.9942 10.9148C27.8843 10.9527 27.7271 10.9943 27.5226 11.0398C27.3218 11.0852 27.0756 11.1117 26.7839 11.1193C26.2688 11.1345 25.8048 11.0568 25.3919 10.8864C24.979 10.7121 24.6514 10.4432 24.4089 10.0795C24.1703 9.71591 24.0529 9.26136 24.0567 8.71591V0.181818ZM30.1937 14.2727C29.9134 14.2727 29.6539 14.25 29.4153 14.2045C29.1804 14.1629 28.9929 14.1136 28.8528 14.0568L29.33 12.4545C29.6293 12.5417 29.8963 12.5833 30.1312 12.5795C30.366 12.5758 30.5725 12.5019 30.7505 12.358C30.9323 12.2178 31.0857 11.983 31.2107 11.6534L31.3868 11.1818L28.2221 2.27273H30.4039L32.4153 8.86364H32.5062L34.5232 2.27273H36.7107L33.2164 12.0568C33.0535 12.5189 32.8376 12.9148 32.5687 13.2443C32.2997 13.5777 31.9702 13.8314 31.58 14.0057C31.1937 14.1837 30.7315 14.2727 30.1937 14.2727Z" fill="#9BB537"/>
<path d="M41.852 2.27273V3.86364H36.8349V2.27273H41.852ZM38.0736 0.181818H40.1304V8.375C40.1304 8.65152 40.172 8.86364 40.2554 9.01136C40.3425 9.1553 40.4561 9.25379 40.5963 9.30682C40.7364 9.35985 40.8917 9.38636 41.0622 9.38636C41.191 9.38636 41.3084 9.37689 41.4145 9.35795C41.5243 9.33902 41.6076 9.32197 41.6645 9.30682L42.0111 10.9148C41.9012 10.9527 41.744 10.9943 41.5395 11.0398C41.3387 11.0852 41.0925 11.1117 40.8008 11.1193C40.2857 11.1345 39.8217 11.0568 39.4088 10.8864C38.9959 10.7121 38.6682 10.4432 38.4258 10.0795C38.1872 9.71591 38.0698 9.26136 38.0736 8.71591V0.181818ZM42.9321 11V2.27273H44.9264V3.72727H45.0174C45.1764 3.22348 45.4492 2.83523 45.8355 2.5625C46.2257 2.28598 46.6708 2.14773 47.1708 2.14773C47.2844 2.14773 47.4113 2.15341 47.5514 2.16477C47.6954 2.17235 47.8147 2.18561 47.9094 2.20455V4.09659C47.8223 4.06629 47.684 4.03977 47.4946 4.01705C47.309 3.99053 47.1291 3.97727 46.9549 3.97727C46.5799 3.97727 46.2427 4.05871 45.9435 4.22159C45.648 4.38068 45.4151 4.60227 45.2446 4.88636C45.0742 5.17045 44.9889 5.49811 44.9889 5.86932V11H42.9321ZM52.1401 11.1705C51.2651 11.1705 50.5095 10.9886 49.8731 10.625C49.2405 10.2576 48.7538 9.73864 48.4129 9.06818C48.072 8.39394 47.9015 7.60038 47.9015 6.6875C47.9015 5.78977 48.072 5.00189 48.4129 4.32386C48.7576 3.64205 49.2386 3.11174 49.8561 2.73295C50.4735 2.35038 51.1989 2.15909 52.0322 2.15909C52.5701 2.15909 53.0776 2.24621 53.5549 2.42045C54.036 2.59091 54.4602 2.85606 54.8276 3.21591C55.1989 3.57576 55.4905 4.03409 55.7026 4.59091C55.9148 5.14394 56.0208 5.80303 56.0208 6.56818V7.19886H48.8674V5.8125H54.0492C54.0454 5.41856 53.9602 5.06818 53.7936 4.76136C53.6269 4.45076 53.3939 4.20644 53.0947 4.02841C52.7992 3.85038 52.4545 3.76136 52.0606 3.76136C51.6401 3.76136 51.2708 3.86364 50.9526 4.06818C50.6345 4.26894 50.3864 4.53409 50.2083 4.86364C50.0341 5.18939 49.9451 5.54735 49.9413 5.9375V7.14773C49.9413 7.6553 50.0341 8.09091 50.2197 8.45455C50.4053 8.81439 50.6648 9.09091 50.9981 9.28409C51.3314 9.47348 51.7216 9.56818 52.1686 9.56818C52.4678 9.56818 52.7386 9.52652 52.9811 9.44318C53.2235 9.35606 53.4337 9.22917 53.6117 9.0625C53.7898 8.89583 53.9242 8.68939 54.0151 8.44318L55.9356 8.65909C55.8144 9.16667 55.5833 9.60985 55.2424 9.98864C54.9053 10.3636 54.4735 10.6553 53.947 10.8636C53.4204 11.0682 52.8182 11.1705 52.1401 11.1705ZM59.6322 11.1761C59.0792 11.1761 58.5811 11.0777 58.1379 10.8807C57.6985 10.6799 57.35 10.3845 57.0925 9.99432C56.8387 9.60417 56.7118 9.12311 56.7118 8.55114C56.7118 8.05871 56.8027 7.65152 56.9845 7.32955C57.1663 7.00758 57.4144 6.75 57.7288 6.55682C58.0432 6.36364 58.3974 6.2178 58.7913 6.11932C59.1891 6.01705 59.6 5.94318 60.0243 5.89773C60.5357 5.8447 60.9504 5.79735 61.2686 5.75568C61.5868 5.71023 61.8179 5.64205 61.9618 5.55114C62.1095 5.45644 62.1834 5.31061 62.1834 5.11364V5.07955C62.1834 4.65152 62.0565 4.32008 61.8027 4.08523C61.5489 3.85038 61.1834 3.73295 60.7061 3.73295C60.2023 3.73295 59.8027 3.8428 59.5072 4.0625C59.2156 4.2822 59.0186 4.54167 58.9163 4.84091L56.9959 4.56818C57.1474 4.03788 57.3974 3.5947 57.7459 3.23864C58.0944 2.87879 58.5205 2.60985 59.0243 2.43182C59.5281 2.25 60.0849 2.15909 60.6947 2.15909C61.1152 2.15909 61.5338 2.20833 61.9504 2.30682C62.3671 2.4053 62.7478 2.56818 63.0925 2.79545C63.4372 3.01894 63.7137 3.32386 63.922 3.71023C64.1341 4.09659 64.2402 4.57955 64.2402 5.15909V11H62.2629V9.80114H62.1947C62.0697 10.0436 61.8936 10.2708 61.6663 10.483C61.4429 10.6913 61.1607 10.8598 60.8197 10.9886C60.4826 11.1136 60.0868 11.1761 59.6322 11.1761ZM60.1663 9.66477C60.5792 9.66477 60.9372 9.58333 61.2402 9.42045C61.5432 9.25379 61.7762 9.03409 61.9391 8.76136C62.1057 8.48864 62.1891 8.19129 62.1891 7.86932V6.84091C62.1247 6.89394 62.0148 6.94318 61.8595 6.98864C61.708 7.03409 61.5375 7.07386 61.3482 7.10795C61.1588 7.14205 60.9713 7.17235 60.7857 7.19886C60.6 7.22538 60.4391 7.24811 60.3027 7.26705C59.9959 7.30871 59.7213 7.37689 59.4788 7.47159C59.2364 7.56629 59.0451 7.69886 58.905 7.86932C58.7648 8.03598 58.6947 8.25189 58.6947 8.51705C58.6947 8.89583 58.833 9.18182 59.1095 9.375C59.386 9.56818 59.7383 9.66477 60.1663 9.66477ZM70.0263 2.27273V3.86364H65.0093V2.27273H70.0263ZM66.2479 0.181818H68.3047V8.375C68.3047 8.65152 68.3464 8.86364 68.4297 9.01136C68.5169 9.1553 68.6305 9.25379 68.7706 9.30682C68.9108 9.35985 69.0661 9.38636 69.2366 9.38636C69.3653 9.38636 69.4828 9.37689 69.5888 9.35795C69.6987 9.33902 69.782 9.32197 69.8388 9.30682L70.1854 10.9148C70.0756 10.9527 69.9184 10.9943 69.7138 11.0398C69.5131 11.0852 69.2669 11.1117 68.9752 11.1193C68.46 11.1345 67.996 11.0568 67.5831 10.8864C67.1703 10.7121 66.8426 10.4432 66.6002 10.0795C66.3616 9.71591 66.2441 9.26136 66.2479 8.71591V0.181818ZM77.8792 4.57955L76.0042 4.78409C75.9512 4.5947 75.8584 4.41667 75.7258 4.25C75.597 4.08333 75.4228 3.94886 75.2031 3.84659C74.9834 3.74432 74.7145 3.69318 74.3963 3.69318C73.9682 3.69318 73.6084 3.78598 73.3167 3.97159C73.0288 4.1572 72.8868 4.39773 72.8906 4.69318C72.8868 4.94697 72.9796 5.15341 73.169 5.3125C73.3622 5.47159 73.6804 5.60227 74.1235 5.70455L75.6122 6.02273C76.4379 6.20076 77.0516 6.48295 77.4531 6.86932C77.8584 7.25568 78.0629 7.76136 78.0667 8.38636C78.0629 8.93561 77.902 9.42045 77.5838 9.84091C77.2694 10.2576 76.8319 10.5833 76.2713 10.8182C75.7107 11.053 75.0667 11.1705 74.3395 11.1705C73.2713 11.1705 72.4114 10.947 71.7599 10.5C71.1084 10.0492 70.7201 9.42235 70.5951 8.61932L72.6008 8.42614C72.6917 8.82008 72.8849 9.11742 73.1804 9.31818C73.4758 9.51894 73.8603 9.61932 74.3338 9.61932C74.8224 9.61932 75.2145 9.51894 75.5099 9.31818C75.8092 9.11742 75.9588 8.86932 75.9588 8.57386C75.9588 8.32386 75.8622 8.11742 75.669 7.95455C75.4796 7.79167 75.1842 7.66667 74.7826 7.57955L73.294 7.26705C72.4569 7.0928 71.8376 6.79924 71.436 6.38636C71.0345 5.9697 70.8357 5.44318 70.8395 4.80682C70.8357 4.26894 70.9815 3.80303 71.277 3.40909C71.5762 3.01136 71.991 2.70455 72.5213 2.48864C73.0554 2.26894 73.6709 2.15909 74.3679 2.15909C75.3906 2.15909 76.1955 2.37689 76.7826 2.8125C77.3735 3.24811 77.7391 3.83712 77.8792 4.57955ZM80.3898 11.125C80.0451 11.125 79.7496 11.0038 79.5034 10.7614C79.2572 10.5189 79.136 10.2235 79.1398 9.875C79.136 9.53409 79.2572 9.24242 79.5034 9C79.7496 8.75758 80.0451 8.63636 80.3898 8.63636C80.7231 8.63636 81.0129 8.75758 81.2591 9C81.5091 9.24242 81.636 9.53409 81.6398 9.875C81.636 10.1061 81.5754 10.3163 81.458 10.5057C81.3443 10.6951 81.1928 10.8466 81.0034 10.9602C80.8178 11.0701 80.6133 11.125 80.3898 11.125Z" fill="#050505"/>
</svg>
