<svg aria-hidden="true" style="width:0;height:0;position:absolute;overflow:hidden" xmlns="http://www.w3.org/2000/svg"><defs><symbol id="favorites-icon" viewBox="0 0 37 32"><path fill="#9bb537" style="fill:var(--color1,#9bb537)" d="M7.325 12.723h23.133v17.735H7.325V12.723z"/><path fill="#9bb537" style="fill:var(--color1,#9bb537)" d="M16.578 11.373a8.289 8.289 0 1 1-16.578 0 8.289 8.289 0 1 1 16.578 0z"/><path fill="#9bb537" style="fill:var(--color1,#9bb537)" d="M26.988 8.289a8.289 8.289 0 1 1-16.578 0 8.289 8.289 0 1 1 16.578 0z"/><path fill="#9bb537" style="fill:var(--color1,#9bb537)" d="M37.398 11.373a8.289 8.289 0 1 1-16.578 0 8.289 8.289 0 1 1 16.578 0z"/><path fill="#f8f8f8" style="fill:var(--color2,#f8f8f8)" d="M7.325 29.301h23.133v2.036c0 .366-.324.663-.723.663H8.048c-.399 0-.723-.297-.723-.663v-2.036zM14.265 10.36c0-.611.432-1.107.964-1.107s.964.495.964 1.107v5.112c0 .611-.432 1.107-.964 1.107s-.964-.495-.964-1.107V10.36zM17.349 10.36c0-.611.604-1.107 1.349-1.107s1.349.495 1.349 1.107v5.112c0 .611-.604 1.107-1.349 1.107s-1.349-.495-1.349-1.107V10.36zM21.205 10.36c0-.611.432-1.107.964-1.107s.964.495.964 1.107v5.112c0 .611-.432 1.107-.964 1.107s-.964-.495-.964-1.107V10.36z"/><path fill="#050505" style="fill:var(--color3,#050505)" d="M28.184 3.131c.289-.03.581-.045.878-.045A8.333 8.333 0 0 1 37 8.832c-.289.03-.581.045-.878.045a8.333 8.333 0 0 1-7.938-5.746z"/></symbol><symbol id="favorites-icon-mob" viewBox="0 0 38 32"><path fill="#9bb537" style="fill:var(--color1,#9bb537)" d="M7.172 12.69h23.172v17.655H7.172V12.69z"/><path fill="#9bb537" style="fill:var(--color1,#9bb537)" d="M16.552 11.586c0 4.571-3.705 8.276-8.276 8.276S0 16.157 0 11.586 3.705 3.31 8.276 3.31s8.276 3.705 8.276 8.276z"/><path fill="#9bb537" style="fill:var(--color1,#9bb537)" d="M27.034 8.276c0 4.571-3.705 8.276-8.276 8.276s-8.276-3.705-8.276-8.276S14.187 0 18.758 0s8.276 3.705 8.276 8.276z"/><path fill="#9bb537" style="fill:var(--color1,#9bb537)" d="M37.517 11.586c0 4.571-3.705 8.276-8.276 8.276s-8.276-3.705-8.276-8.276S24.67 3.31 29.241 3.31s8.276 3.705 8.276 8.276z"/><path fill="#f8f8f8" style="fill:var(--color2,#f8f8f8)" d="M7.172 29.241h23.172v2.081c0 .374-.324.678-.724.678H7.896c-.4 0-.724-.303-.724-.678v-2.081zM14.345 10.463c0-.598.371-1.084.828-1.084s.828.485.828 1.084v5.005c0 .598-.371 1.084-.828 1.084s-.828-.485-.828-1.084v-5.005zM17.103 10.463c0-.598.618-1.084 1.379-1.084s1.379.485 1.379 1.084v5.005c0 .598-.618 1.084-1.379 1.084s-1.379-.485-1.379-1.084v-5.005zM20.966 10.463c0-.598.494-1.084 1.103-1.084s1.103.485 1.103 1.084v5.005c0 .598-.494 1.084-1.103 1.084s-1.103-.485-1.103-1.084v-5.005z"/><path fill="#050505" style="fill:var(--color3,#050505)" d="M28.184 3.131c.288-.03.581-.045.878-.045A8.333 8.333 0 0 1 37 8.832c-.288.03-.581.045-.878.045a8.333 8.333 0 0 1-7.938-5.746z"/></symbol></defs></svg>