<svg xmlns="http://www.w3.org/2000/svg" aria-hidden="true" style="width:0;height:0;position:absolute;overflow:hidden"><defs><symbol id="icon-switch" viewBox="0 0 50 32"><path fill="#cecdcd" d="M13.176 6.902H29.49a6.274 6.274 0 0 1 0 12.549H13.176a6.274 6.274 0 0 1 0-12.548z" style="fill:var(--color1,#cecdcd)"/><path fill="#f8f8f8" d="M19.074 13.177a5.898 5.898 0 1 1-11.797-.001 5.898 5.898 0 0 1 11.797.001z" style="fill:var(--color2,#f8f8f8)"/></symbol><symbol id="icon-shopping-cart" viewBox="0 0 32 32"><path stroke-linecap="round" stroke-linejoin="round" stroke-width="2.667" d="M12 29.333a1.333 1.333 0 1 0 0-2.667 1.333 1.333 0 0 0 0 2.667zm14.667 0a1.333 1.333 0 1 0 0-2.667 1.333 1.333 0 0 0 0 2.667z"/><path stroke-linecap="round" stroke-linejoin="round" stroke-width="2.4" d="M1.333 1.333h5.333l3.573 17.853a2.671 2.671 0 0 0 2.666 2.147h12.96a2.667 2.667 0 0 0 2.666-2.147l2.133-11.187H7.997"/></symbol><symbol id="icon-heart" viewBox="0 0 32 32"><path d="m16.133 24.733-.133.133-.147-.133c-6.333-5.747-10.52-9.547-10.52-13.4 0-2.667 2-4.667 4.667-4.667 2.053 0 4.053 1.333 4.76 3.147h2.48C17.947 8 19.947 6.666 22 6.666c2.667 0 4.667 2 4.667 4.667 0 3.853-4.187 7.653-10.533 13.4zM22 4c-2.32 0-4.547 1.08-6 2.773C14.547 5.08 12.32 4 10 4c-4.107 0-7.333 3.213-7.333 7.333 0 5.027 4.533 9.147 11.4 15.373L16 28.466l1.933-1.76c6.867-6.227 11.4-10.347 11.4-15.373C29.333 7.213 26.106 4 22 4z"/></symbol><symbol id="icon-button-close22" viewBox="0 0 32 32"><path d="M32.011 3.225 28.786 0 16.005 12.781 3.224 0-.001 3.225 12.78 16.006-.001 28.787l3.225 3.225 12.781-12.781 12.781 12.781 3.225-3.225L19.23 16.006 32.011 3.225z"/></symbol><symbol id="icon-burger-menu" viewBox="0 0 31 32"><path stroke-linejoin="round" stroke-linecap="round" stroke-width="1.939" d="M27.159 13.419H3.878M27.159 8.245H3.878M27.159 18.593H3.878M27.159 23.766H3.878"/></symbol><symbol id="icon-button-close" viewBox="0 0 32 32"><path stroke-linejoin="round" stroke-linecap="round" stroke-width="2" d="M24.006 8.002 8.002 24.006M8.002 8.002l16.004 16.004"/></symbol><symbol id="icon-search" viewBox="0 0 96 96"><path d="m86.841 81.162-14.84-14.72a36 36 0 1 0-5.559 5.559l14.72 14.72a4.002 4.002 0 0 0 4.378.876 3.99 3.99 0 0 0 1.302-.876 4 4 0 0 0 0-5.56zM44 72.002a27.998 27.998 0 0 1-27.462-33.463A27.997 27.997 0 0 1 38.537 16.54 28.003 28.003 0 0 1 67.28 28.446a28 28 0 0 1-23.281 43.556z"/></symbol><symbol id="icon-reset" viewBox="0 0 96 96"><path stroke-linejoin="round" stroke-linecap="round" stroke-width="9" d="M72 24 24 72M24 24l48 48"/></symbol><symbol id="icon-previous" viewBox="0 0 96 96"><path d="M42.4 50.839a3.996 3.996 0 0 1-.876-4.378c.203-.488.5-.93.876-1.302l18.36-18.32a4.011 4.011 0 0 0 1.184-2.84 3.999 3.999 0 0 0-1.184-2.84 4.002 4.002 0 0 0-5.64 0l-18.36 18.36a12 12 0 0 0 0 16.96l18.36 18.36a4.008 4.008 0 0 0 5.64 0 4.011 4.011 0 0 0 1.184-2.84 3.999 3.999 0 0 0-1.184-2.84L42.4 50.839z"/></symbol><symbol id="icon-next" viewBox="0 0 96 96"><path d="M53.6 50.839a3.996 3.996 0 0 0 .876-4.378 3.99 3.99 0 0 0-.876-1.302l-18.36-18.32a4.011 4.011 0 0 1-1.184-2.84 3.999 3.999 0 0 1 1.184-2.84 3.999 3.999 0 0 1 5.64 0l18.36 18.36a12.001 12.001 0 0 1 0 16.96l-18.36 18.36a4.008 4.008 0 0 1-5.64 0 4.011 4.011 0 0 1-1.184-2.84 3.999 3.999 0 0 1 1.184-2.84l18.36-18.32z"/></symbol><symbol id="icon-end" viewBox="0 0 124 96"><path d="M81.6 50.839a3.996 3.996 0 0 0 .876-4.378 3.98 3.98 0 0 0-.876-1.302l-18.36-18.32a4.011 4.011 0 0 1-1.184-2.84 3.999 3.999 0 0 1 1.184-2.84 4.002 4.002 0 0 1 5.64 0l18.36 18.36a12.001 12.001 0 0 1 0 16.96l-18.36 18.36a4.008 4.008 0 0 1-5.64 0 4.011 4.011 0 0 1-1.184-2.84 3.999 3.999 0 0 1 1.184-2.84l18.36-18.32z"/><path d="M53.6 50.839a3.996 3.996 0 0 0 .876-4.378 3.98 3.98 0 0 0-.876-1.302l-18.36-18.32a4.011 4.011 0 0 1-1.184-2.84 3.999 3.999 0 0 1 1.184-2.84 3.999 3.999 0 0 1 5.64 0l18.36 18.36a12.001 12.001 0 0 1 0 16.96l-18.36 18.36a4.008 4.008 0 0 1-5.64 0 4.011 4.011 0 0 1-1.184-2.84 3.999 3.999 0 0 1 1.184-2.84l18.36-18.32z"/></symbol><symbol id="icon-beginning" viewBox="0 0 124 96"><path d="M42.4 50.839a3.996 3.996 0 0 1-.876-4.378c.203-.488.5-.93.876-1.302l18.36-18.32a4.011 4.011 0 0 0 1.184-2.84 3.999 3.999 0 0 0-1.184-2.84 4.002 4.002 0 0 0-5.64 0l-18.36 18.36a12 12 0 0 0 0 16.96l18.36 18.36a4.008 4.008 0 0 0 5.64 0 4.011 4.011 0 0 0 1.184-2.84 3.999 3.999 0 0 0-1.184-2.84L42.4 50.839z"/><path d="M70.4 50.839a3.996 3.996 0 0 1-.876-4.378c.203-.488.5-.93.876-1.302l18.36-18.32a4.011 4.011 0 0 0 1.184-2.84 3.999 3.999 0 0 0-1.184-2.84 4.002 4.002 0 0 0-5.64 0l-18.36 18.36a12.001 12.001 0 0 0 0 16.96l18.36 18.36a4.008 4.008 0 0 0 5.64 0 4.011 4.011 0 0 0 1.184-2.84 3.999 3.999 0 0 0-1.184-2.84L70.4 50.839z"/></symbol><symbol id="icon-heart-full" viewBox="0 0 96 96"><path d="M47.976 20.543c-7.998-9.35-21.334-11.865-31.354-3.303S5.191 40.116 13.06 50.242c6.543 8.419 26.342 26.175 32.831 31.922.726.643 1.089.964 1.512 1.091.37.11.774.11 1.144 0 .423-.127.786-.448 1.512-1.091 6.489-5.747 26.289-23.503 32.832-31.922 7.869-10.126 6.631-24.53-3.562-33.002s-23.356-6.046-31.354 3.303z"/></symbol><symbol id="icon-heart" viewBox="0 0 96 96"><path stroke-linejoin="round" stroke-linecap="round" stroke-width="8.727" d="M47.976 20.543c-7.998-9.35-21.334-11.865-31.354-3.303S5.191 40.116 13.06 50.242c6.543 8.419 26.342 26.175 32.831 31.922.726.643 1.089.964 1.512 1.091.37.11.774.11 1.144 0 .423-.127.786-.448 1.512-1.091 6.489-5.747 26.289-23.503 32.832-31.922 7.869-10.126 6.631-24.53-3.562-33.002s-23.356-6.046-31.354 3.303z"/></symbol><symbol id="icon-Star" viewBox="0 0 96 96"><path d="M41.478 9.786c2.053-6.318 10.99-6.318 13.043 0l5.795 17.834a6.858 6.858 0 0 0 6.522 4.738H85.59c6.642 0 9.405 8.5 4.031 12.405L74.45 55.785a6.856 6.856 0 0 0-2.49 7.667l5.794 17.834c2.053 6.318-5.178 11.571-10.552 7.666L52.031 77.93a6.857 6.857 0 0 0-8.061 0L28.799 88.952c-5.374 3.905-12.605-1.349-10.552-7.666l5.795-17.834a6.859 6.859 0 0 0-2.491-7.667L6.38 44.763c-5.374-3.905-2.612-12.405 4.031-12.405h18.752a6.858 6.858 0 0 0 6.522-4.738L41.48 9.786z"/></symbol></defs></svg>