<svg xmlns="http://www.w3.org/2000/svg" aria-hidden="true" style="width:0;height:0;position:absolute;overflow:hidden"><defs><symbol id="icon-switch" viewBox="0 0 50 32"><path fill="#cecdcd" d="M13.176 6.902H29.49a6.274 6.274 0 0 1 0 12.549H13.176a6.274 6.274 0 0 1 0-12.548z" style="fill:var(--color1,#cecdcd)"/><path fill="#f8f8f8" d="M19.074 13.177a5.898 5.898 0 1 1-11.797-.001 5.898 5.898 0 0 1 11.797.001z" style="fill:var(--color2,#f8f8f8)"/></symbol><symbol id="icon-shopping-cart" viewBox="0 0 32 32"><path stroke-linecap="round" stroke-linejoin="round" stroke-width="2.667" d="M12 29.333a1.333 1.333 0 1 0 0-2.667 1.333 1.333 0 0 0 0 2.667zm14.667 0a1.333 1.333 0 1 0 0-2.667 1.333 1.333 0 0 0 0 2.667z"/><path stroke-linecap="round" stroke-linejoin="round" stroke-width="2.4" d="M1.333 1.333h5.333l3.573 17.853a2.671 2.671 0 0 0 2.666 2.147h12.96a2.667 2.667 0 0 0 2.666-2.147l2.133-11.187H7.997"/></symbol><symbol id="icon-heart" viewBox="0 0 32 32"><path d="m16.133 24.733-.133.133-.147-.133c-6.333-5.747-10.52-9.547-10.52-13.4 0-2.667 2-4.667 4.667-4.667 2.053 0 4.053 1.333 4.76 3.147h2.48C17.947 8 19.947 6.666 22 6.666c2.667 0 4.667 2 4.667 4.667 0 3.853-4.187 7.653-10.533 13.4zM22 4c-2.32 0-4.547 1.08-6 2.773C14.547 5.08 12.32 4 10 4c-4.107 0-7.333 3.213-7.333 7.333 0 5.027 4.533 9.147 11.4 15.373L16 28.466l1.933-1.76c6.867-6.227 11.4-10.347 11.4-15.373C29.333 7.213 26.106 4 22 4z"/></symbol><symbol id="icon-button-close22" viewBox="0 0 32 32"><path d="M32.011 3.225 28.786 0 16.005 12.781 3.224 0-.001 3.225 12.78 16.006-.001 28.787l3.225 3.225 12.781-12.781 12.781 12.781 3.225-3.225L19.23 16.006 32.011 3.225z"/></symbol><symbol id="icon-burger-menu" viewBox="0 0 31 32"><path stroke-linejoin="round" stroke-linecap="round" stroke-width="1.939" d="M27.159 13.419H3.878M27.159 8.245H3.878M27.159 18.593H3.878M27.159 23.766H3.878"/></symbol><symbol id="icon-button-close" viewBox="0 0 32 32"><path stroke-linejoin="round" stroke-linecap="round" stroke-width="2" d="M24.006 8.002 8.002 24.006M8.002 8.002l16.004 16.004"/></symbol><symbol id="icon-search" viewBox="0 0 96 96"><path d="m86.841 81.162-14.84-14.72a36 36 0 1 0-5.559 5.559l14.72 14.72a4.002 4.002 0 0 0 4.378.876 3.99 3.99 0 0 0 1.302-.876 4 4 0 0 0 0-5.56zM44 72.002a27.998 27.998 0 0 1-27.462-33.463A27.997 27.997 0 0 1 38.537 16.54 28.003 28.003 0 0 1 67.28 28.446a28 28 0 0 1-23.281 43.556z"/></symbol><symbol id="icon-reset" viewBox="0 0 96 96"><path stroke-linejoin="round" stroke-linecap="round" stroke-width="9" d="M72 24 24 72M24 24l48 48"/></symbol><symbol id="icon-previous" viewBox="0 0 96 96"><path d="M42.4 50.839a3.996 3.996 0 0 1-.876-4.378c.203-.488.5-.93.876-1.302l18.36-18.32a4.011 4.011 0 0 0 1.184-2.84 3.999 3.999 0 0 0-1.184-2.84 4.002 4.002 0 0 0-5.64 0l-18.36 18.36a12 12 0 0 0 0 16.96l18.36 18.36a4.008 4.008 0 0 0 5.64 0 4.011 4.011 0 0 0 1.184-2.84 3.999 3.999 0 0 0-1.184-2.84L42.4 50.839z"/></symbol><symbol id="icon-next" viewBox="0 0 96 96"><path d="M53.6 50.839a3.996 3.996 0 0 0 .876-4.378 3.99 3.99 0 0 0-.876-1.302l-18.36-18.32a4.011 4.011 0 0 1-1.184-2.84 3.999 3.999 0 0 1 1.184-2.84 3.999 3.999 0 0 1 5.64 0l18.36 18.36a12.001 12.001 0 0 1 0 16.96l-18.36 18.36a4.008 4.008 0 0 1-5.64 0 4.011 4.011 0 0 1-1.184-2.84 3.999 3.999 0 0 1 1.184-2.84l18.36-18.32z"/></symbol><symbol id="icon-end" viewBox="0 0 124 96"><path d="M81.6 50.839a3.996 3.996 0 0 0 .876-4.378 3.98 3.98 0 0 0-.876-1.302l-18.36-18.32a4.011 4.011 0 0 1-1.184-2.84 3.999 3.999 0 0 1 1.184-2.84 4.002 4.002 0 0 1 5.64 0l18.36 18.36a12.001 12.001 0 0 1 0 16.96l-18.36 18.36a4.008 4.008 0 0 1-5.64 0 4.011 4.011 0 0 1-1.184-2.84 3.999 3.999 0 0 1 1.184-2.84l18.36-18.32z"/><path d="M53.6 50.839a3.996 3.996 0 0 0 .876-4.378 3.98 3.98 0 0 0-.876-1.302l-18.36-18.32a4.011 4.011 0 0 1-1.184-2.84 3.999 3.999 0 0 1 1.184-2.84 3.999 3.999 0 0 1 5.64 0l18.36 18.36a12.001 12.001 0 0 1 0 16.96l-18.36 18.36a4.008 4.008 0 0 1-5.64 0 4.011 4.011 0 0 1-1.184-2.84 3.999 3.999 0 0 1 1.184-2.84l18.36-18.32z"/></symbol><symbol id="icon-beginning" viewBox="0 0 124 96"><path d="M42.4 50.839a3.996 3.996 0 0 1-.876-4.378c.203-.488.5-.93.876-1.302l18.36-18.32a4.011 4.011 0 0 0 1.184-2.84 3.999 3.999 0 0 0-1.184-2.84 4.002 4.002 0 0 0-5.64 0l-18.36 18.36a12 12 0 0 0 0 16.96l18.36 18.36a4.008 4.008 0 0 0 5.64 0 4.011 4.011 0 0 0 1.184-2.84 3.999 3.999 0 0 0-1.184-2.84L42.4 50.839z"/><path d="M70.4 50.839a3.996 3.996 0 0 1-.876-4.378c.203-.488.5-.93.876-1.302l18.36-18.32a4.011 4.011 0 0 0 1.184-2.84 3.999 3.999 0 0 0-1.184-2.84 4.002 4.002 0 0 0-5.64 0l-18.36 18.36a12.001 12.001 0 0 0 0 16.96l18.36 18.36a4.008 4.008 0 0 0 5.64 0 4.011 4.011 0 0 0 1.184-2.84 3.999 3.999 0 0 0-1.184-2.84L70.4 50.839z"/></symbol><symbol id="icon-heart-full" viewBox="0 0 96 96"><path d="M47.976 20.543c-7.998-9.35-21.334-11.865-31.354-3.303S5.191 40.116 13.06 50.242c6.543 8.419 26.342 26.175 32.831 31.922.726.643 1.089.964 1.512 1.091.37.11.774.11 1.144 0 .423-.127.786-.448 1.512-1.091 6.489-5.747 26.289-23.503 32.832-31.922 7.869-10.126 6.631-24.53-3.562-33.002s-23.356-6.046-31.354 3.303z"/></symbol><symbol id="icon-heart" viewBox="0 0 96 96"><path stroke-linejoin="round" stroke-linecap="round" stroke-width="8.727" d="M47.976 20.543c-7.998-9.35-21.334-11.865-31.354-3.303S5.191 40.116 13.06 50.242c6.543 8.419 26.342 26.175 32.831 31.922.726.643 1.089.964 1.512 1.091.37.11.774.11 1.144 0 .423-.127.786-.448 1.512-1.091 6.489-5.747 26.289-23.503 32.832-31.922 7.869-10.126 6.631-24.53-3.562-33.002s-23.356-6.046-31.354 3.303z"/></symbol><symbol id="icon-Star" viewBox="0 0 96 96"><path d="M41.478 9.786c2.053-6.318 10.99-6.318 13.043 0l5.795 17.834a6.858 6.858 0 0 0 6.522 4.738H85.59c6.642 0 9.405 8.5 4.031 12.405L74.45 55.785a6.856 6.856 0 0 0-2.49 7.667l5.794 17.834c2.053 6.318-5.178 11.571-10.552 7.666L52.031 77.93a6.857 6.857 0 0 0-8.061 0L28.799 88.952c-5.374 3.905-12.605-1.349-10.552-7.666l5.795-17.834a6.859 6.859 0 0 0-2.491-7.667L6.38 44.763c-5.374-3.905-2.612-12.405 4.031-12.405h18.752a6.858 6.858 0 0 0 6.522-4.738L41.48 9.786z"/></symbol><symbol id="icon-twitter-logo" viewBox="0 0 32 32"><path fill="#f4f4fd" d="M32 6.078c-1.19.522-2.458.868-3.78 1.036a6.523 6.523 0 0 0 2.886-3.626 13.11 13.11 0 0 1-4.16 1.588A6.574 6.574 0 0 0 22.154 3c-3.632 0-6.556 2.948-6.556 6.562 0 .52.044 1.02.152 1.496-5.454-.266-10.28-2.88-13.522-6.862a6.605 6.605 0 0 0-.898 3.316 6.57 6.57 0 0 0 2.914 5.452 6.479 6.479 0 0 1-2.964-.808v.072c0 3.188 2.274 5.836 5.256 6.446a6.548 6.548 0 0 1-1.72.216 5.8 5.8 0 0 1-1.242-.112c.85 2.598 3.262 4.508 6.13 4.57a13.182 13.182 0 0 1-8.134 2.798c-.538 0-1.054-.024-1.57-.09A18.469 18.469 0 0 0 10.064 29c12.072 0 18.672-10 18.672-18.668 0-.29-.01-.57-.024-.848A13.087 13.087 0 0 0 32 6.078z" style="fill:var(--color1,#f4f4fd)"/></symbol><symbol id="icon-facebook-logo" viewBox="0 0 32 32"><path fill="#f4f4fd" d="M21.329 5.313h2.921V.225C23.746.156 22.013 0 19.994 0c-4.212 0-7.097 2.649-7.097 7.519V12H8.249v5.688h4.648V32h5.699V17.689h4.46l.708-5.688h-5.169V8.082c.001-1.644.444-2.769 2.735-2.769z" style="fill:var(--color1,#f4f4fd)"/></symbol><symbol id="icon-instagram-logo" viewBox="0 0 32 32"><path fill="#f4f4fd" d="M31.969 9.408c-.075-1.7-.35-2.869-.744-3.882a7.803 7.803 0 0 0-1.85-2.838A7.867 7.867 0 0 0 26.543.844C25.524.45 24.361.175 22.661.1 20.948.019 20.404 0 16.06 0s-4.888.019-6.595.094c-1.7.075-2.869.35-3.882.744a7.803 7.803 0 0 0-2.838 1.85A7.867 7.867 0 0 0 .901 5.52C.507 6.539.232 7.702.157 9.402c-.081 1.713-.1 2.257-.1 6.601s.019 4.888.094 6.595c.075 1.7.35 2.869.744 3.882a7.895 7.895 0 0 0 1.85 2.838 7.867 7.867 0 0 0 2.832 1.844c1.019.394 2.182.669 3.882.744 1.706.075 2.25.094 6.595.094s4.888-.018 6.595-.094c1.7-.075 2.869-.35 3.882-.744a8.181 8.181 0 0 0 4.682-4.682c.394-1.019.669-2.182.744-3.882.075-1.707.094-2.251.094-6.595s-.006-4.888-.081-6.595zm-2.882 13.065c-.069 1.563-.331 2.407-.55 2.969a5.307 5.307 0 0 1-3.038 3.038c-.563.219-1.413.481-2.969.55-1.688.075-2.194.094-6.464.094s-4.782-.018-6.464-.094c-1.563-.069-2.407-.331-2.969-.55a4.926 4.926 0 0 1-1.838-1.194 4.974 4.974 0 0 1-1.194-1.838c-.219-.563-.481-1.413-.55-2.969-.075-1.688-.094-2.194-.094-6.464s.019-4.782.094-6.464c.069-1.563.331-2.407.55-2.969a4.868 4.868 0 0 1 1.2-1.838A4.974 4.974 0 0 1 6.639 3.55c.563-.219 1.413-.481 2.969-.55 1.688-.075 2.194-.094 6.464-.094 4.276 0 4.782.019 6.464.094 1.563.069 2.407.331 2.969.55a4.914 4.914 0 0 1 1.838 1.194 4.974 4.974 0 0 1 1.194 1.838c.219.563.481 1.413.55 2.969.075 1.688.094 2.194.094 6.464s-.019 4.77-.094 6.457z" style="fill:var(--color1,#f4f4fd)"/><path fill="#f4f4fd" d="M16.059 7.782c-4.538 0-8.22 3.682-8.22 8.22s3.682 8.22 8.22 8.22 8.22-3.682 8.22-8.22-3.682-8.22-8.22-8.22zm0 13.553a5.333 5.333 0 0 1 0-10.664 5.333 5.333 0 0 1 0 10.664zM26.524 7.457a1.919 1.919 0 1 1-3.838 0 1.919 1.919 0 0 1 3.838 0z" style="fill:var(--color1,#f4f4fd)"/></symbol><symbol id="icon-linkedin-logo" viewBox="0 0 32 32"><path fill="#f4f4fd" d="M31.992 32v-.001H32V20.263c0-5.741-1.236-10.164-7.948-10.164-3.227 0-5.392 1.771-6.276 3.449h-.093v-2.913h-6.364v21.364h6.627V21.42c0-2.785.528-5.479 3.977-5.479 3.399 0 3.449 3.179 3.449 5.657v10.401h6.62zM.528 10.636h6.635V32H.528V10.636zM3.843 0C1.722 0 0 1.721 0 3.843s1.721 3.879 3.843 3.879c2.121 0 3.843-1.757 3.843-3.879A3.846 3.846 0 0 0 3.843 0z" style="fill:var(--color1,#f4f4fd)"/></symbol><symbol id="icon-Frame-3-1" viewBox="0 0 32 32"><path fill="#fff" style="fill:var(--color1,#fff)" d="m32 2.667-32 15 10.227 3.156L26 8.5 14.003 21.988l.009.004-.012-.004v7.345l5.735-5.576L27.002 26l4.999-23.333z"/></symbol></defs></svg>