<svg width="82" height="15" fill="none" xmlns="http://www.w3.org/2000/svg"><path d="M5.708 2.273v1.59H.691v-1.59h5.017ZM1.93.182h2.057v8.193c0 .277.041.489.125.636.087.144.2.243.34.296.14.053.296.08.466.08.13 0 .247-.01.353-.029.11-.019.193-.036.25-.051l.346 1.608c-.11.038-.267.08-.471.125-.201.045-.447.072-.739.08a3.354 3.354 0 0 1-1.392-.234 2.166 2.166 0 0 1-.983-.806c-.239-.364-.356-.819-.352-1.364V.182ZM9.3 11.176a3.64 3.64 0 0 1-1.495-.295c-.439-.201-.787-.497-1.045-.887-.254-.39-.38-.87-.38-1.443 0-.492.09-.9.272-1.221.182-.322.43-.58.744-.773a3.754 3.754 0 0 1 1.063-.438 8.64 8.64 0 0 1 1.233-.221c.511-.053.926-.1 1.244-.142.318-.046.55-.114.693-.205.148-.095.222-.24.222-.437V5.08c0-.428-.127-.76-.38-.995-.255-.235-.62-.352-1.097-.352-.504 0-.904.11-1.2.33-.29.22-.488.479-.59.778l-1.92-.273c.15-.53.4-.973.75-1.33.348-.36.774-.628 1.278-.806a4.89 4.89 0 0 1 1.67-.273c.42 0 .84.05 1.256.148.417.098.797.261 1.142.488.345.224.621.529.83.915.212.387.318.87.318 1.45V11H11.93V9.801h-.068c-.125.243-.3.47-.528.682a2.54 2.54 0 0 1-.847.506c-.337.125-.733.187-1.187.187Zm.534-1.511c.413 0 .77-.082 1.074-.245.303-.166.536-.386.699-.659.166-.272.25-.57.25-.892V6.841a.968.968 0 0 1-.33.148 4.668 4.668 0 0 1-.511.119c-.19.034-.377.064-.563.09l-.483.069c-.307.042-.581.11-.824.205a1.368 1.368 0 0 0-.574.397c-.14.167-.21.383-.21.648 0 .379.139.665.415.858.277.193.629.29 1.057.29Zm12.4-5.085-1.875.204a1.506 1.506 0 0 0-.279-.534 1.382 1.382 0 0 0-.522-.403 1.905 1.905 0 0 0-.807-.154c-.428 0-.788.093-1.08.279-.288.185-.43.426-.426.721a.755.755 0 0 0 .278.62c.194.159.512.29.955.392l1.489.318c.825.178 1.439.46 1.84.846.406.387.61.892.614 1.517a2.374 2.374 0 0 1-.483 1.455c-.314.417-.752.742-1.312.977-.561.235-1.205.353-1.932.353-1.068 0-1.928-.224-2.58-.671-.651-.45-1.04-1.078-1.165-1.88l2.006-.194c.091.394.284.691.58.892.295.2.68.301 1.153.301.489 0 .88-.1 1.176-.3.3-.202.45-.45.45-.745a.775.775 0 0 0-.29-.62c-.19-.162-.486-.287-.887-.374l-1.489-.313c-.837-.174-1.456-.468-1.858-.88-.401-.417-.6-.944-.596-1.58-.004-.538.142-1.004.437-1.398.3-.398.714-.704 1.245-.92.534-.22 1.15-.33 1.846-.33 1.023 0 1.828.218 2.415.654.59.435.956 1.024 1.097 1.767Zm5.601-2.307v1.59h-5.017v-1.59h5.017ZM24.057.182h2.056v8.193c0 .277.042.489.125.636.088.144.201.243.341.296.14.053.296.08.466.08.13 0 .246-.01.353-.029.11-.019.193-.036.25-.051l.346 1.608c-.11.038-.267.08-.471.125-.201.045-.447.072-.74.08a3.354 3.354 0 0 1-1.391-.234 2.166 2.166 0 0 1-.983-.806c-.239-.364-.356-.819-.352-1.364V.182Zm6.137 14.09c-.28 0-.54-.022-.779-.068a2.878 2.878 0 0 1-.562-.147l.477-1.603c.3.088.566.13.801.125a.982.982 0 0 0 .62-.221c.181-.14.335-.375.46-.705l.176-.471-3.165-8.91h2.182l2.011 6.592h.091l2.017-6.591h2.188l-3.495 9.784a3.92 3.92 0 0 1-.647 1.187 2.633 2.633 0 0 1-.989.762c-.386.178-.848.267-1.386.267Z" fill="#9BB537"/><path d="M41.852 2.273v1.59h-5.017v-1.59h5.017ZM38.074.182h2.056v8.193c0 .277.042.489.125.636.087.144.201.243.341.296.14.053.296.08.466.08.129 0 .246-.01.352-.029.11-.019.194-.036.25-.051l.347 1.608c-.11.038-.267.08-.472.125-.2.045-.447.072-.738.08a3.354 3.354 0 0 1-1.392-.234 2.165 2.165 0 0 1-.983-.806c-.239-.364-.356-.819-.352-1.364V.182ZM42.932 11V2.273h1.994v1.454h.091c.16-.504.432-.892.819-1.164.39-.277.835-.415 1.335-.415.113 0 .24.005.38.017.144.007.264.02.358.04v1.892a2.163 2.163 0 0 0-.414-.08 3.815 3.815 0 0 0-.54-.04 2.08 2.08 0 0 0-1.011.245c-.296.159-.529.38-.7.664-.17.284-.255.612-.255.983V11h-2.057Zm9.208.17c-.875 0-1.63-.181-2.267-.545a3.694 3.694 0 0 1-1.46-1.557c-.341-.674-.511-1.468-.511-2.38 0-.898.17-1.686.51-2.364a3.867 3.867 0 0 1 1.444-1.591c.617-.383 1.343-.574 2.176-.574.538 0 1.046.087 1.523.261.481.17.905.436 1.273.796.37.36.662.818.875 1.375.212.553.318 1.212.318 1.977v.63h-7.154V5.813h5.182a2.213 2.213 0 0 0-.255-1.05 1.86 1.86 0 0 0-.7-.734 1.965 1.965 0 0 0-1.033-.267c-.42 0-.79.103-1.108.307-.319.2-.567.466-.745.796a2.29 2.29 0 0 0-.267 1.074v1.21c0 .507.093.943.279 1.307.185.36.445.636.778.83.333.188.724.283 1.17.283.3 0 .57-.041.813-.125.242-.087.453-.214.63-.38.179-.167.313-.374.404-.62l1.92.216c-.12.508-.352.95-.693 1.33a3.38 3.38 0 0 1-1.295.875c-.527.204-1.129.306-1.807.306Zm7.492.006a3.64 3.64 0 0 1-1.494-.295c-.44-.201-.788-.497-1.045-.887-.254-.39-.381-.87-.381-1.443 0-.492.09-.9.272-1.221.182-.322.43-.58.745-.773a3.755 3.755 0 0 1 1.062-.438 8.641 8.641 0 0 1 1.233-.221c.512-.053.926-.1 1.245-.142.318-.046.549-.114.693-.205.147-.095.221-.24.221-.437V5.08c0-.428-.127-.76-.38-.995-.254-.235-.62-.352-1.097-.352-.504 0-.903.11-1.199.33-.291.22-.488.479-.59.778l-1.921-.273c.151-.53.401-.973.75-1.33.348-.36.774-.628 1.278-.806a4.89 4.89 0 0 1 1.67-.273c.421 0 .84.05 1.256.148.417.098.798.261 1.142.488.345.224.622.529.83.915.212.387.318.87.318 1.45V11h-1.977V9.801h-.068c-.125.243-.301.47-.529.682a2.54 2.54 0 0 1-.846.506c-.337.125-.733.187-1.188.187Zm.534-1.511c.413 0 .771-.082 1.074-.245.303-.166.536-.386.7-.659.166-.272.25-.57.25-.892V6.841a.968.968 0 0 1-.33.148 4.668 4.668 0 0 1-.512.119c-.19.034-.377.064-.562.09l-.483.069c-.307.042-.582.11-.824.205a1.368 1.368 0 0 0-.574.397c-.14.167-.21.383-.21.648 0 .379.138.665.414.858.277.193.63.29 1.057.29Zm9.86-7.392v1.59H65.01v-1.59h5.017ZM66.248.182h2.057v8.193c0 .277.041.489.125.636.087.144.2.243.34.296.14.053.296.08.467.08.128 0 .246-.01.352-.029.11-.019.193-.036.25-.051l.346 1.608a4.59 4.59 0 0 1-.471.125c-.2.045-.447.072-.739.08a3.354 3.354 0 0 1-1.392-.234 2.166 2.166 0 0 1-.983-.806c-.238-.364-.356-.819-.352-1.364V.182ZM77.879 4.58l-1.875.204a1.506 1.506 0 0 0-.278-.534 1.382 1.382 0 0 0-.523-.403 1.904 1.904 0 0 0-.807-.154c-.428 0-.788.093-1.08.279-.287.185-.43.426-.425.721a.755.755 0 0 0 .278.62c.193.159.511.29.955.392l1.488.318c.826.178 1.44.46 1.841.846.405.387.61.892.614 1.517a2.373 2.373 0 0 1-.483 1.455c-.315.417-.752.742-1.313.977-.56.235-1.204.353-1.931.353-1.069 0-1.929-.224-2.58-.671-.652-.45-1.04-1.078-1.165-1.88l2.006-.194c.09.394.284.691.58.892.295.2.68.301 1.153.301.488 0 .88-.1 1.176-.3.3-.202.449-.45.449-.745a.775.775 0 0 0-.29-.62c-.19-.162-.485-.287-.886-.374l-1.489-.313c-.837-.174-1.456-.468-1.858-.88-.402-.417-.6-.944-.597-1.58-.003-.538.142-1.004.438-1.398.3-.398.714-.704 1.244-.92.534-.22 1.15-.33 1.847-.33 1.023 0 1.828.218 2.415.654.59.435.956 1.024 1.096 1.767Zm2.51 6.545c-.344 0-.64-.121-.886-.364a1.178 1.178 0 0 1-.363-.886c-.004-.34.117-.633.363-.875.247-.242.542-.364.887-.364.333 0 .623.122.87.364a1.195 1.195 0 0 1 .198 1.506c-.114.19-.265.34-.455.454-.185.11-.39.165-.613.165Z" fill="#050505"/></svg>