<svg xmlns="http://www.w3.org/2000/svg" aria-hidden="true" style="position:absolute;width:0;height:0;overflow:hidden"><defs>
<symbol id="icon-switch" viewBox="0 0 50 32">
<path fill="#cecdcd" d="M13.176 6.902H29.49a6.274 6.274 0 0 1 0 12.549H13.176a6.274 6.274 0 0 1 0-12.548z" style="fill:var(--color1, #cecdcd)"/>
<path fill="#f8f8f8" d="M19.074 13.177a5.898 5.898 0 1 1-11.797-.001 5.898 5.898 0 0 1 11.797.001z" style="fill:var(--color2, #f8f8f8)"/></symbol><symbol id="icon-shopping-cart" viewBox="0 0 32 32"><path stroke-linecap="round" stroke-linejoin="round" stroke-width="2.667" d="M12 29.333a1.333 1.333 0 1 0 0-2.667 1.333 1.333 0 0 0 0 2.667zM26.667 29.333a1.333 1.333 0 1 0 0-2.667 1.333 1.333 0 0 0 0 2.667z"/>
<path stroke-linecap="round" stroke-linejoin="round" stroke-width="2.4" d="M1.333 1.333h5.333l3.573 17.853a2.671 2.671 0 0 0 2.666 2.147h12.96a2.667 2.667 0 0 0 2.666-2.147l2.133-11.187H7.997"/>
</symbol>
<symbol id="icon-heart" viewBox="0 0 32 32"><path d="m16.133 24.733-.133.133-.147-.133c-6.333-5.747-10.52-9.547-10.52-13.4 0-2.667 2-4.667 4.667-4.667 2.053 0 4.053 1.333 4.76 3.147h2.48C17.947 8 19.947 6.666 22 6.666c2.667 0 4.667 2 4.667 4.667 0 3.853-4.187 7.653-10.533 13.4zM22 4c-2.32 0-4.547 1.08-6 2.773C14.547 5.08 12.32 4 10 4c-4.107 0-7.333 3.213-7.333 7.333 0 5.027 4.533 9.147 11.4 15.373L16 28.466l1.933-1.76c6.867-6.227 11.4-10.347 11.4-15.373C29.333 7.213 26.106 4 22 4z"/></symbol>
<symbol id="icon-button-close22" viewBox="0 0 32 32"><path d="M32.011 3.225 28.786 0 16.005 12.781 3.224 0-.001 3.225 12.78 16.006-.001 28.787l3.225 3.225 12.781-12.781 12.781 12.781 3.225-3.225L19.23 16.006 32.011 3.225z"/></symbol>

<symbol id="icon-burger-menu" viewBox="0 0 31 32">
<path stroke-linejoin="round" stroke-linecap="round" stroke-miterlimit="4" stroke-width="1.9394" d="M27.159 13.419h-23.281"></path>
<path stroke-linejoin="round" stroke-linecap="round" stroke-miterlimit="4" stroke-width="1.9394" d="M27.159 8.245h-23.281"></path>
<path stroke-linejoin="round" stroke-linecap="round" stroke-miterlimit="4" stroke-width="1.9394" d="M27.159 18.593h-23.281"></path>
<path stroke-linejoin="round" stroke-linecap="round" stroke-miterlimit="4" stroke-width="1.9394" d="M27.159 23.766h-23.281"></path>
</symbol>

<symbol id="icon-button-close" viewBox="0 0 32 32">
<path  stroke-linejoin="round" stroke-linecap="round" stroke-miterlimit="4" stroke-width="2" d="M24.006 8.002l-16.004 16.004"></path>
<path  stroke-linejoin="round" stroke-linecap="round" stroke-miterlimit="4" stroke-width="2" d="M8.002 8.002l16.004 16.004"></path>
</symbol>
</defs></svg>