<svg xmlns="http://www.w3.org/2000/svg" aria-hidden="true" style="position:absolute;width:0;height:0;overflow:hidden"><defs>
<symbol id="icon-switch" viewBox="0 0 50 32">
<path fill="#cecdcd" d="M13.176 6.902H29.49a6.274 6.274 0 0 1 0 12.549H13.176a6.274 6.274 0 0 1 0-12.548z" style="fill:var(--color1, #cecdcd)"/>
<path fill="#f8f8f8" d="M19.074 13.177a5.898 5.898 0 1 1-11.797-.001 5.898 5.898 0 0 1 11.797.001z" style="fill:var(--color2, #f8f8f8)"/></symbol><symbol id="icon-shopping-cart" viewBox="0 0 32 32"><path stroke-linecap="round" stroke-linejoin="round" stroke-width="2.667" d="M12 29.333a1.333 1.333 0 1 0 0-2.667 1.333 1.333 0 0 0 0 2.667zM26.667 29.333a1.333 1.333 0 1 0 0-2.667 1.333 1.333 0 0 0 0 2.667z"/>
<path stroke-linecap="round" stroke-linejoin="round" stroke-width="2.4" d="M1.333 1.333h5.333l3.573 17.853a2.671 2.671 0 0 0 2.666 2.147h12.96a2.667 2.667 0 0 0 2.666-2.147l2.133-11.187H7.997"/>
</symbol>
<symbol id="icon-heart" viewBox="0 0 32 32"><path d="m16.133 24.733-.133.133-.147-.133c-6.333-5.747-10.52-9.547-10.52-13.4 0-2.667 2-4.667 4.667-4.667 2.053 0 4.053 1.333 4.76 3.147h2.48C17.947 8 19.947 6.666 22 6.666c2.667 0 4.667 2 4.667 4.667 0 3.853-4.187 7.653-10.533 13.4zM22 4c-2.32 0-4.547 1.08-6 2.773C14.547 5.08 12.32 4 10 4c-4.107 0-7.333 3.213-7.333 7.333 0 5.027 4.533 9.147 11.4 15.373L16 28.466l1.933-1.76c6.867-6.227 11.4-10.347 11.4-15.373C29.333 7.213 26.106 4 22 4z"/></symbol>
<symbol id="icon-button-close22" viewBox="0 0 32 32"><path d="M32.011 3.225 28.786 0 16.005 12.781 3.224 0-.001 3.225 12.78 16.006-.001 28.787l3.225 3.225 12.781-12.781 12.781 12.781 3.225-3.225L19.23 16.006 32.011 3.225z"/></symbol>

<symbol id="icon-burger-menu" viewBox="0 0 31 32">
<path stroke-linejoin="round" stroke-linecap="round" stroke-miterlimit="4" stroke-width="1.9394" d="M27.159 13.419h-23.281"></path>
<path stroke-linejoin="round" stroke-linecap="round" stroke-miterlimit="4" stroke-width="1.9394" d="M27.159 8.245h-23.281"></path>
<path stroke-linejoin="round" stroke-linecap="round" stroke-miterlimit="4" stroke-width="1.9394" d="M27.159 18.593h-23.281"></path>
<path stroke-linejoin="round" stroke-linecap="round" stroke-miterlimit="4" stroke-width="1.9394" d="M27.159 23.766h-23.281"></path>
</symbol>

<symbol id="icon-button-close" viewBox="0 0 32 32">
<path  stroke-linejoin="round" stroke-linecap="round" stroke-miterlimit="4" stroke-width="2" d="M24.006 8.002l-16.004 16.004"></path>
<path  stroke-linejoin="round" stroke-linecap="round" stroke-miterlimit="4" stroke-width="2" d="M8.002 8.002l16.004 16.004"></path>
</symbol>
<symbol id="icon-search" viewBox="0 0 96 96">
<path d="M86.841 81.162l-14.84-14.72c5.76-7.182 8.55-16.299 7.795-25.475s-4.997-17.714-11.853-23.859-15.807-9.429-25.010-9.177c-9.204 0.252-17.961 4.020-24.471 10.531s-10.279 15.268-10.531 24.471c-0.252 9.204 3.032 18.154 9.177 25.010s14.683 11.099 23.859 11.853c9.176 0.755 18.293-2.035 25.475-7.795l14.72 14.72c0.372 0.375 0.814 0.673 1.301 0.876s1.010 0.307 1.539 0.307c0.528 0 1.051-0.105 1.538-0.307s0.93-0.501 1.302-0.876c0.721-0.746 1.124-1.743 1.124-2.78s-0.403-2.034-1.124-2.78zM44 72.002c-5.538 0-10.951-1.642-15.556-4.719s-8.193-7.45-10.313-12.566c-2.119-5.116-2.674-10.746-1.593-16.178s3.747-10.421 7.663-14.336c3.916-3.916 8.905-6.583 14.336-7.663s11.061-0.526 16.177 1.593c5.117 2.119 9.49 5.708 12.566 10.313s4.719 10.018 4.719 15.556c0 7.426-2.95 14.548-8.201 19.799s-12.373 8.201-19.799 8.201z"></path>
</symbol>
<symbol id="icon-reset" viewBox="0 0 96 96">
<path stroke-linejoin="round" stroke-linecap="round" stroke-miterlimit="4" stroke-width="9" d="M72 24l-48 48"></path>
<path stroke-linejoin="round" stroke-linecap="round" stroke-miterlimit="4" stroke-width="9" d="M24 24l48 48"></path>
</symbol>
<symbol id="icon-previous" viewBox="0 0 96 96">
<path d="M42.4 50.839c-0.375-0.372-0.673-0.814-0.876-1.302s-0.308-1.010-0.308-1.538 0.104-1.051 0.308-1.538c0.203-0.488 0.5-0.93 0.876-1.302l18.36-18.32c0.375-0.372 0.672-0.814 0.876-1.302s0.308-1.010 0.308-1.538-0.105-1.051-0.308-1.538c-0.203-0.487-0.501-0.93-0.876-1.302-0.75-0.745-1.764-1.163-2.82-1.163s-2.071 0.418-2.82 1.163l-18.36 18.36c-2.247 2.25-3.509 5.3-3.509 8.48s1.262 6.23 3.509 8.48l18.36 18.36c0.745 0.739 1.75 1.156 2.8 1.16 0.526 0.003 1.048-0.098 1.536-0.297s0.93-0.492 1.304-0.863c0.375-0.372 0.672-0.814 0.876-1.302s0.308-1.010 0.308-1.538c0-0.528-0.105-1.051-0.308-1.538s-0.501-0.93-0.876-1.302l-18.36-18.32z"></path>
</symbol>
<symbol id="icon-next" viewBox="0 0 96 96">
<path d="M53.6 50.839c0.375-0.372 0.673-0.814 0.876-1.302s0.308-1.010 0.308-1.538-0.104-1.051-0.308-1.538c-0.203-0.487-0.5-0.93-0.876-1.302l-18.36-18.32c-0.375-0.372-0.672-0.814-0.876-1.302s-0.308-1.010-0.308-1.538c0-0.528 0.105-1.051 0.308-1.538s0.501-0.93 0.876-1.302c0.749-0.745 1.763-1.163 2.82-1.163s2.071 0.418 2.82 1.163l18.36 18.36c2.247 2.25 3.51 5.3 3.51 8.48s-1.262 6.23-3.51 8.48l-18.36 18.36c-0.745 0.739-1.751 1.156-2.8 1.16-0.526 0.003-1.048-0.098-1.536-0.297s-0.931-0.492-1.304-0.863c-0.375-0.372-0.672-0.814-0.876-1.302s-0.308-1.010-0.308-1.538c0-0.528 0.105-1.051 0.308-1.538s0.501-0.93 0.876-1.302l18.36-18.32z"></path>
</symbol>
<symbol id="icon-end" viewBox="0 0 124 96">
<path d="M81.6 50.839c0.375-0.372 0.673-0.814 0.876-1.302s0.308-1.010 0.308-1.538-0.104-1.051-0.308-1.538c-0.203-0.488-0.5-0.93-0.876-1.302l-18.36-18.32c-0.375-0.372-0.672-0.814-0.876-1.302s-0.308-1.010-0.308-1.538 0.105-1.051 0.308-1.538c0.203-0.487 0.501-0.93 0.876-1.302 0.75-0.745 1.764-1.163 2.82-1.163s2.071 0.418 2.82 1.163l18.36 18.36c2.247 2.25 3.51 5.3 3.51 8.48s-1.262 6.23-3.51 8.48l-18.36 18.36c-0.745 0.739-1.75 1.156-2.8 1.16-0.526 0.003-1.048-0.098-1.536-0.297s-0.93-0.492-1.304-0.863c-0.375-0.372-0.672-0.814-0.876-1.302s-0.308-1.010-0.308-1.538c0-0.528 0.105-1.051 0.308-1.538s0.501-0.93 0.876-1.302l18.36-18.32z"></path>
<path d="M53.6 50.839c0.375-0.372 0.673-0.814 0.876-1.302s0.308-1.010 0.308-1.538-0.104-1.051-0.308-1.538c-0.203-0.488-0.5-0.93-0.876-1.302l-18.36-18.32c-0.375-0.372-0.672-0.814-0.876-1.302s-0.308-1.010-0.308-1.538c0-0.528 0.105-1.051 0.308-1.538s0.501-0.93 0.876-1.302c0.749-0.745 1.763-1.163 2.82-1.163s2.071 0.418 2.82 1.163l18.36 18.36c2.247 2.25 3.51 5.3 3.51 8.48s-1.262 6.23-3.51 8.48l-18.36 18.36c-0.745 0.739-1.751 1.156-2.8 1.16-0.526 0.003-1.048-0.098-1.536-0.297s-0.931-0.492-1.304-0.863c-0.375-0.372-0.672-0.814-0.876-1.302s-0.308-1.010-0.308-1.538c0-0.528 0.105-1.051 0.308-1.538s0.501-0.93 0.876-1.302l18.36-18.32z"></path>
</symbol>
<symbol id="icon-beginning" viewBox="0 0 124 96">
<path d="M42.4 50.839c-0.375-0.372-0.673-0.814-0.876-1.302s-0.308-1.010-0.308-1.538 0.104-1.051 0.308-1.538c0.203-0.488 0.5-0.93 0.876-1.302l18.36-18.32c0.375-0.372 0.672-0.814 0.876-1.302s0.308-1.010 0.308-1.538-0.105-1.051-0.308-1.538c-0.203-0.487-0.501-0.93-0.876-1.302-0.75-0.745-1.764-1.163-2.82-1.163s-2.071 0.418-2.82 1.163l-18.36 18.36c-2.247 2.25-3.509 5.3-3.509 8.48s1.262 6.23 3.509 8.48l18.36 18.36c0.745 0.739 1.75 1.156 2.8 1.16 0.526 0.003 1.048-0.098 1.536-0.297s0.93-0.492 1.304-0.863c0.375-0.372 0.672-0.814 0.876-1.302s0.308-1.010 0.308-1.538c0-0.528-0.105-1.051-0.308-1.538s-0.501-0.93-0.876-1.302l-18.36-18.32z"></path>
<path d="M70.4 50.839c-0.375-0.372-0.673-0.814-0.876-1.302s-0.308-1.010-0.308-1.538 0.104-1.051 0.308-1.538c0.203-0.488 0.5-0.93 0.876-1.302l18.36-18.32c0.375-0.372 0.672-0.814 0.876-1.302s0.308-1.010 0.308-1.538-0.105-1.051-0.308-1.538c-0.203-0.487-0.501-0.93-0.876-1.302-0.75-0.745-1.764-1.163-2.82-1.163s-2.071 0.418-2.82 1.163l-18.36 18.36c-2.247 2.25-3.51 5.3-3.51 8.48s1.262 6.23 3.51 8.48l18.36 18.36c0.745 0.739 1.75 1.156 2.8 1.16 0.526 0.003 1.048-0.098 1.536-0.297s0.93-0.492 1.304-0.863c0.375-0.372 0.672-0.814 0.876-1.302s0.308-1.010 0.308-1.538c0-0.528-0.105-1.051-0.308-1.538s-0.501-0.93-0.876-1.302l-18.36-18.32z"></path>
</symbol>
<symbol id="icon-heart-full" viewBox="0 0 96 96">
<path d="M47.976 20.543c-7.998-9.35-21.334-11.865-31.354-3.303s-11.431 22.876-3.562 33.002c6.543 8.419 26.342 26.175 32.831 31.922 0.726 0.643 1.089 0.964 1.512 1.091 0.37 0.11 0.774 0.11 1.144 0 0.423-0.127 0.786-0.448 1.512-1.091 6.489-5.747 26.289-23.503 32.832-31.922 7.869-10.126 6.631-24.53-3.562-33.002s-23.356-6.046-31.354 3.303z"></path>
</symbol>
<symbol id="icon-heart" viewBox="0 0 96 96">
<path stroke-linejoin="round" stroke-linecap="round" stroke-miterlimit="4" stroke-width="8.7273" d="M47.976 20.543c-7.998-9.35-21.334-11.865-31.354-3.303s-11.431 22.876-3.562 33.002c6.543 8.419 26.342 26.175 32.831 31.922 0.726 0.643 1.089 0.964 1.512 1.091 0.37 0.11 0.774 0.11 1.144 0 0.423-0.127 0.786-0.448 1.512-1.091 6.489-5.747 26.289-23.503 32.832-31.922 7.869-10.126 6.631-24.53-3.562-33.002s-23.356-6.046-31.354 3.303z"></path>
</symbol>
<symbol id="icon-Star" viewBox="0 0 96 96">
<path d="M41.478 9.786c2.053-6.318 10.99-6.318 13.043 0l5.795 17.834c0.918 2.825 3.551 4.738 6.522 4.738h18.752c6.642 0 9.405 8.5 4.031 12.405l-15.171 11.022c-2.403 1.746-3.409 4.841-2.49 7.667l5.794 17.834c2.053 6.318-5.178 11.571-10.552 7.666l-15.171-11.022c-2.403-1.746-5.658-1.746-8.061 0l-15.171 11.022c-5.374 3.905-12.605-1.349-10.552-7.666l5.795-17.834c0.918-2.825-0.088-5.92-2.491-7.667l-15.171-11.022c-5.374-3.905-2.612-12.405 4.031-12.405h18.752c2.971 0 5.604-1.913 6.522-4.738l5.795-17.834z"></path>
</symbol>
</defs></svg>